<?xml version="1.0" encoding="utf-8"?>
<!-- Generator: Adobe Illustrator 25.1.0, SVG Export Plug-In . SVG Version: 6.00 Build 0)  -->
<svg version="1.1" id="Layer_1" xmlns="http://www.w3.org/2000/svg" xmlns:xlink="http://www.w3.org/1999/xlink" x="0px" y="0px"
	 viewBox="0 0 293.58 41.4" enable-background="new 0 0 293.58 41.4" xml:space="preserve">
<g>
	<path d="M94.52,25.94c0,2.15-0.33,4.11-1,5.88c-0.67,1.77-1.61,3.27-2.84,4.49c-1.23,1.23-2.71,2.17-4.45,2.84
		c-1.74,0.67-3.67,1-5.79,1c-2.15,0-4.09-0.33-5.83-1c-1.74-0.67-3.22-1.61-4.43-2.84s-2.15-2.72-2.81-4.47c-0.67-1.75-1-3.72-1-5.9
		V7.92h6.58v18.02c0,2.45,0.69,4.42,2.07,5.9s3.2,2.22,5.47,2.22c2.27,0,4.08-0.74,5.43-2.22c1.35-1.48,2.02-3.45,2.02-5.9V7.92
		h6.58C94.52,7.92,94.52,25.94,94.52,25.94z"/>
	<path d="M99.08,7.92h6.35l16.02,20.86V7.92h6.26v32.23h-5.89L105.39,18.6v21.55h-6.31V7.92z"/>
	<path d="M149.33,34.27c1.66,0,3.22-0.35,4.68-1.04c1.45-0.7,2.74-1.69,3.86-3l4.31,4.27c-1.51,1.79-3.44,3.21-5.79,4.27
		c-2.35,1.06-4.76,1.59-7.24,1.59c-2.39,0-4.62-0.42-6.7-1.27c-2.07-0.85-3.87-2-5.38-3.45c-1.51-1.45-2.7-3.18-3.56-5.18
		s-1.29-4.15-1.29-6.45s0.44-4.46,1.32-6.47s2.07-3.75,3.59-5.2c1.51-1.45,3.31-2.6,5.38-3.45s4.29-1.27,6.65-1.27
		c2.54,0,5.01,0.54,7.4,1.61s4.33,2.52,5.81,4.34l-4.45,4.4c-1.12-1.39-2.44-2.46-3.95-3.2s-3.12-1.11-4.81-1.11
		c-1.42,0-2.76,0.27-4.02,0.79c-1.26,0.53-2.34,1.26-3.25,2.18c-0.91,0.92-1.62,2.01-2.13,3.27c-0.51,1.26-0.77,2.63-0.77,4.11
		c0,1.45,0.26,2.81,0.79,4.06c0.53,1.26,1.26,2.34,2.18,3.25s2.01,1.63,3.27,2.16C146.48,34.01,147.85,34.27,149.33,34.27z"/>
	<path d="M0,40.15V8.37h6.58v25.97h17.39v5.81H0z"/>
	<path d="M199.7,40.15V7.92h16.16c1.57,0,3.02,0.25,4.35,0.76c1.34,0.51,2.48,1.21,3.43,2.1s1.7,1.96,2.23,3.2
		c0.54,1.24,0.81,2.6,0.81,4.08c0,1.44-0.27,2.77-0.81,3.98s-1.29,2.26-2.26,3.15s-2.11,1.58-3.43,2.07
		c-1.32,0.49-2.76,0.74-4.33,0.74h-9.49v12.16h-6.66V40.15z M215.12,13.67h-8.75v8.8h8.75c1.44,0,2.6-0.4,3.48-1.2
		c0.87-0.8,1.31-1.86,1.31-3.18s-0.44-2.39-1.31-3.2C217.73,14.08,216.57,13.67,215.12,13.67z"/>
	<path d="M225.85,40.15l13.26-32.23h7.74l13.08,32.23h-7.23l-3.27-8.47h-13.31l-3.32,8.47H225.85z M238.19,26.34h9.21l-4.56-11.88
		L238.19,26.34z"/>
	<path d="M264.31,40.15V7.92h12.32c2.38,0,4.61,0.41,6.69,1.24c2.08,0.83,3.87,1.96,5.38,3.41c1.51,1.44,2.7,3.16,3.57,5.16
		s1.31,4.13,1.31,6.4c0,2.24-0.44,4.34-1.31,6.31c-0.87,1.96-2.06,3.66-3.57,5.09s-3.31,2.56-5.38,3.38
		c-2.08,0.83-4.31,1.24-6.69,1.24H264.31z M276.74,13.54h-5.7v20.6h5.7c1.42,0,2.76-0.26,4.01-0.79c1.25-0.53,2.34-1.25,3.27-2.17
		s1.65-2,2.18-3.24s0.79-2.58,0.79-4.01c0-1.46-0.26-2.83-0.79-4.1s-1.25-2.38-2.18-3.31c-0.93-0.93-2.02-1.66-3.27-2.19
		C279.49,13.8,278.16,13.54,276.74,13.54z"/>
	<path d="M166.92,40.15V7.92h6.68v12.94h14.83V7.92h6.68v32.23h-6.68V26.98H173.6v13.17H166.92z"/>
	<polygon points="48.87,31.26 45.13,40.15 41.48,31.26 	"/>
	<polygon points="61.97,32.82 49.08,1.04 41.45,1.04 28.38,32.82 35.22,32.82 35.22,32.82 36.79,32.82 35.89,31.11 40.55,19.2 
		40.54,19.2 45.13,7.49 54.25,31.13 53.32,32.82 54.91,32.82 54.91,32.82 	"/>
</g>
</svg>
