<?xml version="1.0" encoding="utf-8"?>
<!-- Generator: Adobe Illustrator 25.1.0, SVG Export Plug-In . SVG Version: 6.00 Build 0)  -->
<svg version="1.1" id="Layer_1" xmlns="http://www.w3.org/2000/svg" xmlns:xlink="http://www.w3.org/1999/xlink" x="0px" y="0px"
	 viewBox="0 0 174 32" enable-background="new 0 0 174 32" xml:space="preserve">
<g>
	<path fill="#FFFFFF" d="M56.532,18.678c0,1.321-0.205,2.524-0.614,3.612c-0.409,1.088-0.99,2.008-1.743,2.761
		c-0.753,0.753-1.665,1.334-2.734,1.743c-1.069,0.409-2.255,0.614-3.556,0.614c-1.321,0-2.515-0.205-3.584-0.614
		c-1.069-0.409-1.976-0.99-2.719-1.743c-0.744-0.753-1.321-1.669-1.729-2.747c-0.409-1.078-0.614-2.287-0.614-3.626V7.605h4.044
		v11.073c0,1.506,0.423,2.715,1.269,3.626c0.846,0.911,1.966,1.367,3.361,1.367c1.395,0,2.506-0.455,3.333-1.367
		c0.827-0.911,1.241-2.12,1.241-3.626V7.605h4.044V18.678z"/>
	<path fill="#FFFFFF" d="M58.515,7.605h3.904l9.845,12.816V7.605h3.848v19.803h-3.621l-10.1-13.24v13.24h-3.876V7.605z"/>
	<path fill="#FFFFFF" d="M88.569,23.797c1.022,0,1.98-0.214,2.873-0.642c0.893-0.428,1.683-1.041,2.371-1.841l2.65,2.622
		c-0.93,1.097-2.115,1.971-3.556,2.622c-1.441,0.651-2.924,0.976-4.449,0.976c-1.469,0-2.841-0.261-4.114-0.781
		c-1.274-0.52-2.376-1.227-3.305-2.12c-0.93-0.892-1.66-1.952-2.19-3.18c-0.53-1.227-0.795-2.547-0.795-3.961
		c0-1.413,0.269-2.738,0.809-3.975c0.539-1.236,1.273-2.301,2.203-3.194c0.93-0.892,2.031-1.599,3.305-2.12
		c1.273-0.52,2.636-0.781,4.086-0.781c1.562,0,3.077,0.33,4.546,0.99c1.469,0.66,2.659,1.548,3.57,2.664l-2.733,2.705
		c-0.688-0.855-1.497-1.511-2.427-1.966c-0.93-0.455-1.915-0.683-2.957-0.683c-0.874,0-1.697,0.163-2.469,0.488
		c-0.772,0.326-1.436,0.772-1.994,1.339c-0.558,0.567-0.995,1.237-1.311,2.008c-0.316,0.772-0.474,1.613-0.474,2.524
		c0,0.893,0.163,1.725,0.488,2.496c0.325,0.772,0.772,1.437,1.339,1.994c0.567,0.558,1.236,1,2.008,1.325
		C86.816,23.635,87.657,23.797,88.569,23.797z"/>
	<path fill="#FFFFFF" d="M0.095,27.408V7.883h4.044v15.954h10.683v3.57H0.095z"/>
	<path fill="#FFFFFF" d="M117.878,27.408V7.605h9.93c0.962,0,1.853,0.156,2.674,0.467c0.82,0.311,1.523,0.74,2.108,1.287
		c0.584,0.547,1.042,1.202,1.372,1.966c0.33,0.764,0.495,1.598,0.495,2.504c0,0.887-0.165,1.702-0.495,2.447
		c-0.33,0.745-0.792,1.391-1.386,1.938c-0.594,0.547-1.297,0.972-2.108,1.273c-0.811,0.302-1.697,0.453-2.659,0.453h-5.828v7.469
		H117.878z M127.355,11.141h-5.375v5.403h5.375c0.886,0,1.598-0.245,2.136-0.736c0.537-0.49,0.806-1.141,0.806-1.952
		c0-0.811-0.269-1.466-0.806-1.966C128.954,11.391,128.241,11.141,127.355,11.141z"/>
	<path fill="#FFFFFF" d="M133.126,27.408l8.148-19.803h4.753l8.034,19.803h-4.442l-2.009-5.206h-8.176l-2.037,5.206H133.126z
		 M140.708,18.921h5.658l-2.801-7.299L140.708,18.921z"/>
	<path fill="#FFFFFF" d="M155.937,27.408V7.605h7.572c1.464,0,2.833,0.255,4.11,0.764c1.276,0.509,2.378,1.207,3.307,2.093
		c0.929,0.887,1.661,1.943,2.195,3.169c0.535,1.226,0.802,2.537,0.802,3.932c0,1.377-0.267,2.669-0.802,3.876
		c-0.535,1.207-1.267,2.249-2.195,3.126c-0.929,0.877-2.032,1.57-3.307,2.079c-1.276,0.509-2.646,0.764-4.11,0.764H155.937z
		 M163.572,11.057h-3.505v12.657h3.505c0.873,0,1.695-0.162,2.464-0.487c0.769-0.324,1.439-0.768,2.009-1.332
		c0.57-0.563,1.016-1.226,1.339-1.99c0.323-0.763,0.484-1.584,0.484-2.463c0-0.897-0.162-1.737-0.484-2.52
		c-0.323-0.783-0.769-1.46-1.339-2.033s-1.239-1.021-2.009-1.346C165.268,11.22,164.446,11.057,163.572,11.057z"/>
	<path fill="#FFFFFF" d="M98.56,27.408V7.605h4.102v7.95h9.11v-7.95h4.102v19.803h-4.102v-8.091h-9.11v8.091H98.56z"/>
	<g>
		<polygon fill="#FFFFFF" points="29.301,21.943 27.002,27.408 24.763,21.943 		"/>
		<g>
			<polygon fill="#FFFFFF" points="37.352,22.905 29.43,3.38 24.745,3.38 16.712,22.905 20.915,22.905 20.915,22.903 21.882,22.903 
				21.326,21.854 24.188,14.537 24.187,14.537 27.004,7.341 32.61,21.865 32.033,22.903 33.011,22.903 33.011,22.905 			"/>
		</g>
	</g>
</g>
</svg>
